<svg xmlns="http://www.w3.org/2000/svg" width="22.016" height="20.287" viewBox="0 0 22.016 20.287"><defs><style>.a{fill:#fff;stroke:#a3a6b9;stroke-width:0.4px;}</style></defs><g transform="translate(0.2 0.186)"><path class="a" d="M796.872-916.993a.781.781,0,0,1,.3-.372q5.039-3.686,10.076-7.374a.631.631,0,0,1,.883.02l8.339,6.1c.579.424,1.156.849,1.737,1.269a.625.625,0,0,1,.273.409.547.547,0,0,1-.213.561.526.526,0,0,1-.614.048,8.369,8.369,0,0,1-.692-.48q-4.553-3.332-9.1-6.669a.254.254,0,0,0-.362,0q-4.768,3.5-9.544,6.994a.962.962,0,0,1-.4.218.6.6,0,0,1-.674-.388Z" transform="translate(-796.872 924.91)"/><path class="a" d="M841.392-756.234q0-2.31,0-4.619a.664.664,0,0,1,.255-.593.514.514,0,0,1,.555-.072.565.565,0,0,1,.354.508c0,.091,0,.183,0,.274q0,4.176,0,8.353c0,.3,0,.3.3.3H846.7c.307,0,.307,0,.307-.317,0-1.5-.017-3,.006-4.493a2.752,2.752,0,0,1,1.642-2.594,2.823,2.823,0,0,1,3.99,2.182,4.588,4.588,0,0,1,.034.567c0,1.462,0,2.925,0,4.387,0,.217.067.274.277.272,1.294-.008,2.587,0,3.881,0,.292,0,.293,0,.293-.288q0-4.229,0-8.458a.883.883,0,0,1,.04-.374.62.62,0,0,1,.546-.368.628.628,0,0,1,.545.431,1.069,1.069,0,0,1,.033.334q0,4.567,0,9.133c0,.547-.218.775-.762.776q-2.626.005-5.252,0c-.562,0-.763-.212-.763-.767,0-1.673,0-3.347,0-5.02a2.084,2.084,0,0,0-.2-1,1.668,1.668,0,0,0-1.81-.865,1.663,1.663,0,0,0-1.3,1.475,6.148,6.148,0,0,0-.028.631q0,2.4,0,4.809c0,.509-.2.733-.707.736q-2.689.013-5.379,0c-.476,0-.692-.251-.692-.737Q841.391-753.935,841.392-756.234Z" transform="translate(-839.039 770.793)"/></g></svg>