<svg xmlns="http://www.w3.org/2000/svg" width="22.625" height="20.427" viewBox="0 0 22.625 20.427"><defs><style>.a,.b{fill:#fff;stroke:#fff;}.a{stroke-width:0.7px;}.b{stroke-width:0.5px;}</style></defs><g transform="translate(0.393 0.25)"><path class="a" d="M-1484.7-689.862c-.212.192-.4.361-.584.527a2.538,2.538,0,0,1-.225.179.516.516,0,0,1-.707-.065.553.553,0,0,1-.078-.733c.206-.251.431-.485.657-.717.367-.376.735-.751,1.13-1.1.317-.279.5-.284.83-.012a12.631,12.631,0,0,1,1.033.982c.252.259.506.514.739.791a.5.5,0,0,1,.1.582.628.628,0,0,1-.515.381.418.418,0,0,1-.3-.083,4.945,4.945,0,0,1-.622-.537c-.068-.067-.141-.128-.223-.2a1.641,1.641,0,0,0,.009.391,7.721,7.721,0,0,0,2.018,5.169,8.083,8.083,0,0,0,3.6,2.343,8.391,8.391,0,0,0,2.924.346,7.177,7.177,0,0,0,2.13-.414,7.819,7.819,0,0,0,2.162-1.139,8.323,8.323,0,0,0,1.916-2.019c.276-.406.492-.844.73-1.271a.581.581,0,0,1,.61-.3.625.625,0,0,1,.473.525,1.115,1.115,0,0,1-.16.561,9.225,9.225,0,0,1-3.2,3.71,9.164,9.164,0,0,1-2.877,1.285,9.188,9.188,0,0,1-3.657.181,9.265,9.265,0,0,1-3.664-1.386,9.069,9.069,0,0,1-2.651-2.623,9.524,9.524,0,0,1-1.29-2.876,10.425,10.425,0,0,1-.241-1.5C-1484.671-689.2-1484.69-689.51-1484.7-689.862Z" transform="translate(1486.398 700.221)"/><path class="b" d="M-1378.96-934.752a9.854,9.854,0,0,1,.73-.667.556.556,0,0,1,.884.157.5.5,0,0,1-.023.589,14.893,14.893,0,0,1-1.2,1.264,7.507,7.507,0,0,1-.666.612.475.475,0,0,1-.683.012,5.679,5.679,0,0,1-.677-.619c-.37-.373-.756-.731-1.1-1.13a.593.593,0,0,1-.212-.563.587.587,0,0,1,.945-.332c.221.164.409.364.615.545.041.036.079.074.116.11.048-.024.034-.06.033-.089a8.5,8.5,0,0,0-.391-2.618,8.324,8.324,0,0,0-1.555-2.736,8.053,8.053,0,0,0-2.416-1.909,7.546,7.546,0,0,0-3.019-.869,8.61,8.61,0,0,0-2.292.123,8.013,8.013,0,0,0-2.741,1.11,8.238,8.238,0,0,0-2.853,3.175,2.983,2.983,0,0,1-.313.53.558.558,0,0,1-.683.135.579.579,0,0,1-.306-.618,3.664,3.664,0,0,1,.4-.9,9.144,9.144,0,0,1,1.77-2.273,9.352,9.352,0,0,1,2.5-1.681,9.263,9.263,0,0,1,2.108-.678,8.774,8.774,0,0,1,2.972-.071,9.783,9.783,0,0,1,2.584.749,9.175,9.175,0,0,1,2.284,1.473,9.089,9.089,0,0,1,2.145,2.767,9.133,9.133,0,0,1,.918,2.971,12.584,12.584,0,0,1,.108,1.338C-1378.971-934.826-1378.966-934.8-1378.96-934.752Z" transform="translate(1399.232 944.238)"/></g></svg>