<svg xmlns="http://www.w3.org/2000/svg" width="22.247" height="21.357" viewBox="0 0 22.247 21.357"><defs><style>.a{fill:#fff;stroke:#05081d;stroke-width:0.3px;}</style></defs><g transform="translate(0.15 0.15)"><g transform="translate(0 0)"><path class="a" d="M-1225.212,80.564c-2.333,0-4.666.016-7-.005a3.941,3.941,0,0,0-3.934,3.353,3.951,3.951,0,0,0-.044.578q0,4.338,0,8.676a3.907,3.907,0,0,0,3.1,3.833c.178.038.231.1.229.282-.008,1.134-.006,2.268,0,3.4a.869.869,0,0,0,.7.914.882.882,0,0,0,.831-.285q1.708-1.713,3.42-3.421c.217-.217.439-.428.648-.652a.456.456,0,0,1,.369-.149q4.37.005,8.74,0a3.931,3.931,0,0,0,3.7-2.655,3.9,3.9,0,0,0,.21-1.25q0-4.362,0-8.724a3.922,3.922,0,0,0-3.44-3.872,4.133,4.133,0,0,0-.5-.027Zm-5.907,18.064V98.42q0-1.032,0-2.064a.933.933,0,0,0-.442-.875,1.24,1.24,0,0,0-.674-.112,2.2,2.2,0,0,1-2.227-2.216q0-4.322,0-8.643a2.18,2.18,0,0,1,2.216-2.22q7.031,0,14.062,0a2.181,2.181,0,0,1,2.217,2.22q0,4.322,0,8.643a2.209,2.209,0,0,1-.053.48,2.187,2.187,0,0,1-2.175,1.737q-4.572,0-9.144,0a1.071,1.071,0,0,0-.818.336c-.929.941-1.867,1.873-2.8,2.807A.334.334,0,0,1-1231.12,98.628Z" transform="translate(1236.188 -80.559)"/></g><path class="a" d="M-991.027,186.222a3.22,3.22,0,0,1-.7,2.009,11.687,11.687,0,0,1-1.735,1.97c-.494.465-.947.5-1.3.108-.4-.455-.23-.868.135-1.248a9.522,9.522,0,0,0,1.8-2.169,1.443,1.443,0,0,0-.135-1.644,1.484,1.484,0,0,0-1.5-.56,1.389,1.389,0,0,0-1.186.97,3.354,3.354,0,0,0-.118.523c-.089.512-.365.852-.907.786-.582-.07-.751-.495-.707-1.034a3.237,3.237,0,0,1,3.3-2.93A3.189,3.189,0,0,1-991.027,186.222Z" transform="translate(1005.087 -179.696)"/><path class="a" d="M-933.177,434.557a.956.956,0,0,1,.928.963.95.95,0,0,1-.941.948.956.956,0,0,1-.931-.961A.964.964,0,0,1-933.177,434.557Z" transform="translate(943.865 -423.138)"/></g></svg>