<svg xmlns="http://www.w3.org/2000/svg" width="54" height="54" viewBox="0 0 54 54"><defs><style>.a{fill:#6d32a5;}.b{fill:#fff;}</style></defs><g transform="translate(0.447)"><circle class="a" cx="27" cy="27" r="27" transform="translate(-0.447)"/><path class="b" d="M132.07-712.6q0,2.253,0,4.506a3.787,3.787,0,0,1-.04.622,1.023,1.023,0,0,1-1.047.9,1.01,1.01,0,0,1-.992-.91,6.448,6.448,0,0,1-.049-.889q-.005-4.439,0-8.878c0-.693-.031-.723-.737-.723q-4.506,0-9.011,0a3.864,3.864,0,0,1-.71-.045,1.008,1.008,0,0,1-.827-1.019,1.007,1.007,0,0,1,.809-.99,5.121,5.121,0,0,1,.932-.066q4.394-.007,8.788,0c.731,0,.756-.025.756-.749q0-4.394,0-8.788a5.464,5.464,0,0,1,.056-.888,1,1,0,0,1,1.03-.863.99.99,0,0,1,.989.856,4.715,4.715,0,0,1,.052.8q.005,4.461,0,8.922c0,.679.032.711.7.711q4.417,0,8.833,0a5.853,5.853,0,0,1,.889.054.99.99,0,0,1,.868,1.023.992.992,0,0,1-.886,1.009,4.834,4.834,0,0,1-.712.034q-4.483,0-8.967,0c-.7,0-.725.025-.726.73Q132.068-714.923,132.07-712.6Z" transform="translate(-104.253 745.665)"/></g></svg>