<svg xmlns="http://www.w3.org/2000/svg" xmlns:xlink="http://www.w3.org/1999/xlink" width="49.521" height="38.497" viewBox="0 0 49.521 38.497"><defs><style>.a{fill:none;}.b{clip-path:url(#a);}.c{fill:#43bccd;}.d{fill:#6d32a5;}.e{fill:#1d2585;}</style><clipPath id="a"><rect class="a" width="49.521" height="38.497"/></clipPath></defs><g class="b"><path class="c" d="M51.275,15.306,76.722.615a4.535,4.535,0,0,1,6.8,3.927V33.925a4.535,4.535,0,0,1-6.8,3.927L51.275,23.161a4.535,4.535,0,0,1,0-7.855" transform="translate(-34.003 0)"/><path class="d" d="M32.248,15.405,6.8.714A4.535,4.535,0,0,0,0,4.641V34.024a4.535,4.535,0,0,0,6.8,3.927L32.248,23.26a4.535,4.535,0,0,0,0-7.855" transform="translate(0.001 -0.069)"/><path class="e" d="M51.275,48.084l7.515,4.339,7.462-4.308a4.535,4.535,0,0,0,0-7.855l-7.515-4.339-7.462,4.308a4.535,4.535,0,0,0,0,7.855" transform="translate(-34.003 -24.923)"/></g></svg>